<svg width="101" height="101" viewBox="0 0 101 101" fill="none" xmlns="http://www.w3.org/2000/svg">
<path d="M63.431 39.0209L46.551 57.9289L37.985 49.3639C37.399 48.7779 36.45 48.7779 35.864 49.3639C35.278 49.9499 35.278 50.8989 35.864 51.4849L45.552 61.1729C45.833 61.4549 46.215 61.6119 46.613 61.6119C46.627 61.6119 46.641 61.6119 46.655 61.6109C47.068 61.5989 47.457 61.4189 47.732 61.1109L65.67 41.0189C66.222 40.4009 66.168 39.4529 65.55 38.9009C64.93 38.3499 63.984 38.4039 63.431 39.0209Z" fill="#738ba7" stroke="#738ba7" stroke-width="2.2" id="id_105"></path>
<path d="M92.075 50.0004C92.103 49.8864 92.122 49.7684 92.122 49.6454C92.122 45.6474 87.975 43.5814 84.315 41.7574C81.717 40.4634 79.032 39.1244 78.317 37.4374C77.589 35.7154 78.617 32.9094 79.609 30.1944C80.993 26.4114 82.423 22.5004 79.784 19.8634C77.196 17.2754 73.412 18.1514 69.751 19.0024C67.189 19.5964 64.538 20.2094 62.773 19.4634C61.05 18.7344 59.618 16.4744 58.233 14.2864C56.224 11.1174 53.949 7.52441 50 7.52441C46.044 7.52441 43.812 11.1954 41.844 14.4354C40.478 16.6844 39.065 19.0084 37.344 19.7364C35.585 20.4814 32.906 19.8064 30.316 19.1554C26.626 18.2294 22.811 17.2674 20.217 19.8644C17.596 22.4844 18.866 26.4154 20.096 30.2184C20.974 32.9314 21.881 35.7374 21.147 37.4744C20.431 39.1684 17.865 40.4954 15.382 41.7794C11.865 43.5974 7.87799 45.6584 7.87799 49.6474C7.87799 49.7714 7.89799 49.8904 7.92599 50.0054C7.89799 50.1194 7.87899 50.2374 7.87899 50.3604C7.87899 54.3494 11.866 56.4104 15.384 58.2284C17.865 59.5114 20.432 60.8384 21.148 62.5324C21.882 64.2694 20.975 67.0754 20.097 69.7894C18.868 73.5914 17.597 77.5214 20.217 80.1424C22.813 82.7394 26.628 81.7804 30.317 80.8514C32.908 80.2014 35.588 79.5284 37.346 80.2724C39.066 80.9994 40.479 83.3234 41.845 85.5714C43.814 88.8104 46.045 92.4814 50.001 92.4814C53.95 92.4814 56.226 88.8884 58.234 85.7194C59.62 83.5314 61.052 81.2714 62.772 80.5424C64.544 79.7944 67.19 80.4084 69.751 81.0034C73.41 81.8524 77.196 82.7324 79.782 80.1434C82.424 77.5054 80.993 73.5934 79.609 69.8114C78.616 67.0964 77.589 64.2904 78.316 62.5704C79.032 60.8824 81.717 59.5434 84.315 58.2494C87.974 56.4264 92.122 54.3594 92.122 50.3614C92.123 50.2344 92.103 50.1154 92.075 50.0004ZM82.978 55.5604C79.893 57.0974 76.703 58.6874 75.554 61.3984C74.367 64.2084 75.6 67.5794 76.792 70.8384C77.9 73.8694 78.948 76.7344 77.661 78.0184C76.252 79.4304 73.422 78.7734 70.429 78.0794C67.401 77.3774 64.27 76.6504 61.604 77.7774C59.019 78.8714 57.332 81.5354 55.7 84.1114C53.951 86.8714 52.299 89.4784 50.001 89.4784C47.732 89.4784 46.118 86.8224 44.408 84.0104C42.795 81.3554 41.126 78.6094 38.514 77.5064C35.829 76.3684 32.656 77.1664 29.584 77.9394C26.574 78.6944 23.731 79.4124 22.338 78.0184C21.015 76.6964 21.955 73.7884 22.95 70.7094C23.997 67.4744 25.078 64.1284 23.91 61.3614C22.772 58.6694 19.716 57.0894 16.761 55.5604C13.736 53.9974 10.878 52.5204 10.878 50.3574C10.878 50.2334 10.858 50.1144 10.83 49.9984C10.858 49.8844 10.877 49.7664 10.877 49.6434C10.877 47.4804 13.734 46.0034 16.759 44.4404C19.715 42.9124 22.772 41.3324 23.909 38.6384C25.077 35.8724 23.996 32.5274 22.949 29.2914C21.954 26.2124 21.013 23.3044 22.338 21.9814C23.728 20.5884 26.571 21.3044 29.583 22.0614C32.653 22.8324 35.826 23.6334 38.512 22.4954C41.124 21.3914 42.793 18.6454 44.408 15.9904C46.117 13.1774 47.731 10.5214 50 10.5214C52.298 10.5214 53.95 13.1284 55.698 15.8894C57.331 18.4654 59.018 21.1294 61.604 22.2244C64.27 23.3514 67.401 22.6244 70.429 21.9214C73.422 21.2274 76.251 20.5704 77.662 21.9834C78.947 23.2664 77.899 26.1304 76.791 29.1624C75.599 32.4224 74.366 35.7934 75.554 38.6044C76.701 41.3144 79.892 42.9044 82.977 44.4414C86.137 46.0154 89.122 47.5034 89.122 49.6434C89.122 49.7674 89.142 49.8864 89.17 50.0014C89.142 50.1154 89.123 50.2334 89.123 50.3564C89.123 52.4994 86.138 53.9864 82.978 55.5604Z" fill="#738ba7" stroke="#738bab" stroke-width="2.2" id="id_106"></path>
</svg>